# xmcd CD database file
#
# Track frame offsets:
#	150
#	22250
#	46503
#	63638
#
# Disc length: 1142 seconds
#
# Revision: 2
# Processed by: cddbd v1.5.1PL0 Copyright (c) Steve Scherf et al.
# Submitted via: CDex 1.51
#
DISCID=2f047404
DTITLE=K - 抱きしめたい
DYEAR=2005
DGENRE=Pop
TTITLE0=抱きしめたい
TTITLE1=memories
TTITLE2=Just Once
TTITLE3=抱きしめたい (Vocalless)
EXTD=YEAR: 2005/05/11
EXTT0=
EXTT1=
EXTT2=
EXTT3=
PLAYORDER=
